<?xml version="1.0" encoding="UTF-8" standalone="no"?>
<!-- Created with Inkscape (http://www.inkscape.org/) -->

<svg
   width="242.05653mm"
   height="136.02788mm"
   viewBox="0 0 242.05653 136.02788"
   version="1.1"
   id="svg1"
   xmlns="http://www.w3.org/2000/svg"
   xmlns:svg="http://www.w3.org/2000/svg">
  <style>
   path {
      fill:black;
      stroke: black;
   }
   @media (prefers-color-scheme: dark) {
      path { 
         fill: white; 
         stroke: white;
      }
   }
  </style>
  <defs
     id="defs1" />
  <g
     id="layer1"
     style="display:none"
     transform="translate(-3.9717303,-56.986065)">
    <path
       id="path1"
       mask="none"
       style="fill-opacity:1;stroke-width:35.3678;stroke-linecap:round;stroke-linejoin:round;stroke-dasharray:none;stroke-opacity:1;paint-order:stroke markers fill"
       d="M 3.3980128e-5,125.0002 A 125,125 0 0 0 125.00014,249.9997 125,125 0 0 0 250.00025,125.0002 Z"
       transform="matrix(0.84822862,0,0,0.84822862,18.971423,-23.19504)" />
    <path
       id="path1-2"
       mask="none"
       style="stroke-width:0.264583;-inkscape-stroke:none"
       d="m 40.2401,82.833707 a 84.759952,84.759952 0 0 0 84.76002,84.759613 84.759952,84.759952 0 0 0 84.76002,-84.759613 z" />
  </g>
  <g
     id="g3"
     transform="translate(-3.9717303,-56.986065)">
    <path
       id="path4"
       style=";stroke-width:0.848229;stroke-linecap:round;-inkscape-stroke:none;paint-order:markers stroke fill"
       d="M 3.9717303,56.986063 V 71.985664 C 3.9719983,138.64996 58.335708,193.014 125,193.01394 191.66428,193.014 246.02801,138.64996 246.02827,71.985664 V 56.986063 H 194.76009 V 71.985664 C 194.75996,110.69061 163.70494,141.74587 125,141.74575 86.295066,141.74587 55.240044,110.69061 55.239919,71.985664 V 56.986063 Z M 18.971332,71.985664 H 40.239801 A 84.759952,84.759952 0 0 0 125,156.74535 84.759952,84.759952 0 0 0 209.7602,71.985664 h 21.26847 A 106.02858,106.02858 0 0 1 125,178.01382 106.02858,106.02858 0 0 1 18.971332,71.985664 Z" />
  </g>
</svg>
